<?xml version="1.0" standalone="no"?>
<!DOCTYPE svg PUBLIC "-//W3C//DTD SVG 20010904//EN"
 "http://www.w3.org/TR/2001/REC-SVG-20010904/DTD/svg10.dtd">
<svg version="1.0" xmlns="http://www.w3.org/2000/svg"
 width="134.000000pt" height="45.000000pt" viewBox="0 0 134.000000 45.000000"
 preserveAspectRatio="xMidYMid meet">

<g transform="translate(0.000000,45.000000) scale(0.100000,-0.100000)"
fill="#000000" stroke="none">
<path d="M89 437 c8 -10 3 -20 -20 -43 -37 -35 -69 -94 -69 -126 1 -33 22 -66
56 -89 22 -14 45 -19 99 -18 l70 2 -64 7 c-53 6 -69 12 -88 34 -27 32 -29 56
-7 101 22 47 53 73 64 56 6 -10 15 -1 34 35 14 27 25 45 26 41 0 -4 -9 -25
-20 -47 -11 -22 -20 -42 -20 -45 0 -3 23 -5 51 -5 45 0 50 2 44 19 -4 15 1 20
26 25 91 18 166 -11 156 -60 -2 -13 0 -21 4 -18 5 3 9 23 9 44 0 68 -72 102
-172 82 -41 -8 -54 -7 -66 4 -19 19 -129 20 -113 1z"/>
<path d="M522 378 c2 -57 6 -73 18 -73 8 0 16 10 18 22 2 13 13 24 30 28 72
18 49 95 -29 95 l-40 0 3 -72z m68 28 c0 -18 -16 -29 -30 -21 -13 8 -1 35 16
35 8 0 14 -6 14 -14z"/>
<path d="M642 378 l3 -71 39 0 c46 0 61 20 20 25 -36 4 -44 28 -10 28 32 0 35
27 4 32 -32 4 -29 22 5 26 15 2 27 9 27 18 0 10 -13 14 -45 14 l-46 0 3 -72z"/>
<path d="M755 425 c-41 -40 -29 -95 25 -114 80 -27 139 67 74 118 -35 28 -69
26 -99 -4z m79 -21 c29 -29 12 -64 -31 -64 -32 0 -46 31 -27 58 18 26 37 28
58 6z"/>
<path d="M892 378 c2 -59 6 -72 21 -74 12 -1 17 5 17 20 0 16 9 24 33 31 25 8
33 16 35 38 5 41 -14 57 -65 57 l-44 0 3 -72z m73 22 c0 -8 -8 -16 -17 -18
-13 -2 -18 3 -18 18 0 15 5 20 18 18 9 -2 17 -10 17 -18z"/>
<path d="M1012 379 l3 -72 38 -1 c23 -1 37 4 37 12 0 6 -9 12 -20 12 -18 0
-20 7 -20 60 0 54 -2 60 -20 60 -19 0 -21 -5 -18 -71z"/>
<path d="M1110 378 l0 -73 37 1 c42 1 60 24 19 24 -16 0 -26 6 -26 15 0 8 9
15 20 15 11 0 20 7 20 15 0 8 -9 15 -20 15 -11 0 -20 7 -20 15 0 9 9 15 25 15
16 0 25 6 25 15 0 11 -11 15 -40 15 l-40 0 0 -72z"/>
<path d="M1200 435 c0 -8 4 -15 9 -15 5 0 14 7 21 15 10 13 9 15 -9 15 -12 0
-21 -6 -21 -15z"/>
<path d="M1252 438 c-22 -22 -14 -57 18 -73 35 -18 31 -38 -5 -29 -32 8 -42
-14 -11 -26 41 -15 76 3 76 40 0 25 -5 33 -30 41 -36 13 -39 29 -6 29 30 0 42
15 20 24 -25 9 -49 7 -62 -6z"/>
<path d="M130 270 c0 -22 4 -40 9 -40 6 0 9 18 8 40 -1 22 -5 40 -9 40 -4 0
-8 -18 -8 -40z"/>
<path d="M173 290 c1 -11 5 -20 9 -20 11 0 10 28 -1 35 -6 3 -9 -4 -8 -15z"/>
<path d="M210 270 c0 -22 5 -40 10 -40 6 0 10 18 10 40 0 22 -4 40 -10 40 -5
0 -10 -18 -10 -40z"/>
<path d="M302 298 c-15 -15 -16 -55 -1 -64 7 -4 9 0 5 14 -4 12 -2 30 4 42 12
23 10 26 -8 8z"/>
<path d="M520 215 c0 -54 0 -55 30 -55 17 0 30 4 30 9 0 5 -8 8 -17 7 -15 -1
-19 8 -21 47 -4 65 -22 59 -22 -8z"/>
<path d="M600 215 l0 -55 37 0 c20 0 33 3 29 7 -4 4 -15 8 -24 8 -26 0 -20 30
6 33 26 4 20 22 -9 22 -10 0 -19 5 -19 10 0 6 9 10 19 10 11 0 23 5 26 10 4 6
-8 10 -29 10 l-36 0 0 -55z"/>
<path d="M702 218 c-13 -36 -16 -54 -9 -57 6 -2 13 1 15 8 5 14 52 15 52 1 0
-5 7 -10 15 -10 18 0 19 -5 -4 55 -26 68 -44 69 -69 3z m48 -10 c0 -5 -7 -8
-15 -8 -17 0 -18 2 -9 25 5 13 8 14 15 3 5 -7 9 -16 9 -20z"/>
<path d="M803 253 c-4 -11 3 -24 22 -38 31 -25 26 -50 -8 -39 -17 5 -19 3 -11
-6 7 -6 22 -10 35 -8 35 4 37 41 4 62 -28 19 -24 40 6 31 11 -4 19 -2 19 4 0
18 -60 13 -67 -6z"/>
<path d="M900 215 c0 -30 5 -55 10 -55 6 0 10 25 10 55 0 30 -4 55 -10 55 -5
0 -10 -25 -10 -55z"/>
<path d="M950 215 c0 -30 5 -55 10 -55 6 0 10 17 10 38 l1 37 30 -37 c44 -54
59 -50 59 17 0 44 -3 55 -16 55 -13 0 -15 -8 -12 -35 2 -19 2 -35 -2 -35 -3 0
-16 16 -29 35 -35 52 -51 46 -51 -20z"/>
<path d="M1097 252 c-35 -38 -11 -92 42 -92 31 0 51 16 51 42 0 13 -8 18 -25
18 -28 0 -35 -20 -7 -20 15 -1 15 -2 -3 -15 -17 -14 -21 -13 -39 5 -28 28 -11
56 33 53 41 -1 36 21 -5 25 -20 2 -36 -4 -47 -16z"/>
<path d="M527 113 c-14 -14 -6 -20 26 -18 17 2 37 -1 42 -4 19 -13 70 -6 73
10 2 11 -5 14 -28 12 -16 -2 -43 -4 -60 -6 -16 -2 -30 0 -30 5 0 10 -14 11
-23 1z"/>
<path d="M709 117 c-9 -23 -3 -32 24 -34 22 0 26 2 16 9 -10 7 -5 8 16 3 28
-6 29 -5 10 8 -16 11 -63 21 -66 14z"/>
<path d="M850 106 c0 -9 5 -16 10 -16 6 0 10 4 10 9 0 6 -4 13 -10 16 -5 3
-10 -1 -10 -9z"/>
<path d="M1127 113 c-4 -3 -7 -11 -7 -17 0 -6 5 -5 12 2 6 6 9 14 7 17 -3 3
-9 2 -12 -2z"/>
<path d="M920 98 c0 -9 79 -8 85 2 2 3 -16 6 -41 6 -24 0 -44 -4 -44 -8z"/>
<path d="M531 24 c0 -11 3 -14 6 -6 3 7 2 16 -1 19 -3 4 -6 -2 -5 -13z"/>
<path d="M560 25 c0 -6 9 -11 20 -11 11 0 20 5 20 11 0 6 -9 11 -20 11 -11 0
-20 -5 -20 -11z"/>
<path d="M610 20 c0 -11 4 -20 9 -20 5 0 7 9 4 20 -3 11 -7 20 -9 20 -2 0 -4
-9 -4 -20z"/>
<path d="M671 24 c0 -11 3 -14 6 -6 3 7 2 16 -1 19 -3 4 -6 -2 -5 -13z"/>
<path d="M700 23 c0 -11 7 -20 15 -20 12 0 12 3 3 16 -7 9 -14 18 -15 20 -2 2
-3 -5 -3 -16z"/>
<path d="M744 20 c2 -21 30 -19 32 3 1 12 1 13 -3 2 -5 -18 -20 -20 -26 -2 -2
7 -3 6 -3 -3z"/>
<path d="M793 22 c0 -12 5 -22 9 -22 11 0 10 12 -2 30 -7 12 -9 10 -7 -8z"/>
<path d="M831 24 c0 -11 3 -14 6 -6 3 7 2 16 -1 19 -3 4 -6 -2 -5 -13z"/>
<path d="M862 20 c0 -14 2 -19 5 -12 2 6 2 18 0 25 -3 6 -5 1 -5 -13z"/>
<path d="M892 23 c4 -23 32 -23 34 0 1 12 1 13 -3 2 -2 -8 -9 -15 -15 -15 -5
0 -8 7 -4 15 3 8 1 15 -5 15 -6 0 -9 -8 -7 -17z"/>
<path d="M960 26 c0 -8 4 -17 9 -20 5 -4 7 3 4 14 -6 23 -13 26 -13 6z"/>
<path d="M990 26 c0 -23 16 -27 17 -5 1 10 -2 19 -8 19 -5 0 -9 -6 -9 -14z"/>
<path d="M1036 33 c-11 -11 -6 -23 9 -23 8 0 15 4 15 9 0 13 -16 22 -24 14z"/>
<path d="M1100 26 c0 -9 -4 -14 -10 -11 -5 3 -10 1 -10 -4 0 -6 5 -11 10 -11
13 0 25 28 16 37 -3 4 -6 -1 -6 -11z"/>
<path d="M1124 25 c4 -24 16 -30 16 -7 0 12 -4 22 -9 22 -5 0 -8 -7 -7 -15z"/>
<path d="M1160 26 c0 -8 7 -17 16 -20 14 -5 15 -4 5 8 -9 11 -9 15 1 19 8 4 7
6 -4 6 -10 1 -18 -5 -18 -13z"/>
</g>
</svg>
